<svg xmlns="http://www.w3.org/2000/svg" xmlns:xlink="http://www.w3.org/1999/xlink" width="251.1" height="37.5" xmlns:v="https://vecta.io/nano"><path d="M1.1 5.9h6.5v12.3L19.1 5.9h8.5L14.5 19.7l14.3 15.9h-9.1L7.6 21.5v14.1H1.1V5.9zm28.9 0h11c1.5 0 3 .1 4.4.4s2.6.8 3.6 1.5a7.32 7.32 0 0 1 2.4 2.8c.6 1.2.9 2.6.9 4.4 0 1.7-.3 3.2-.8 4.4-.6 1.2-1.3 2.1-2.3 2.8s-2.1 1.2-3.5 1.5c-1.3.3-2.8.4-4.4.4h-4.8v11.6H30V5.9zm6.6 12.6H41c.6 0 1.2-.1 1.7-.2s1-.3 1.5-.6c.4-.3.8-.6 1-1.1s.4-1 .4-1.7c0-.8-.2-1.4-.5-1.8-.3-.5-.8-.8-1.3-1.1s-1.2-.4-1.8-.5c-.7-.1-1.3-.1-1.9-.1h-3.4v7.1zM55.3 5.9h6.5v29.7h-6.5V5.9z" fill="#143157"/><g fill="#0099d8"><path d="M78.1 5.9h11.5c1.5 0 2.9.1 4.3.4s2.5.8 3.6 1.5a7.32 7.32 0 0 1 2.4 2.8c.6 1.2.9 2.6.9 4.3 0 2.1-.5 3.9-1.6 5.3-1.1 1.5-2.7 2.4-4.8 2.8l7.5 12.5H94l-6.2-11.9h-3.2v11.9h-6.5V5.9zm6.5 12.3h3.9c.6 0 1.2 0 1.9-.1.7 0 1.2-.2 1.8-.4.5-.2 1-.5 1.3-1 .3-.4.5-1.1.5-1.9s-.2-1.4-.5-1.8-.7-.8-1.2-1-1-.4-1.6-.5-1.2-.1-1.8-.1h-4.3v6.8zm38.1 13.9c-1 1.3-2.3 2.3-3.8 3s-3.1 1-4.8 1c-1.6 0-3-.3-4.4-.8s-2.6-1.2-3.6-2.2c-1-.9-1.8-2.1-2.4-3.4s-.9-2.8-.9-4.4.3-3.1.9-4.4 1.4-2.4 2.4-3.4c1-.9 2.2-1.7 3.6-2.2s2.9-.8 4.4-.8a10.19 10.19 0 0 1 4 .8c1.2.5 2.2 1.2 3 2.2.8.9 1.5 2.1 1.9 3.4s.7 2.8.7 4.4v2H109c.3 1.2.8 2.2 1.6 2.9s1.9 1.1 3.1 1.1c1 0 1.9-.2 2.6-.7s1.3-1.1 1.9-1.8l4.5 3.3zm-5.4-9c0-1.1-.3-2-1-2.7s-1.7-1.1-2.8-1.1c-.7 0-1.3.1-1.8.3s-1 .5-1.4.9c-.4.3-.7.8-.9 1.2-.2.5-.3.9-.4 1.4h8.3z"/><use xlink:href="#B"/><path d="M164.3 35.6h-6v-2.8h-.1c-.2.4-.5.8-.9 1.2-.3.4-.8.7-1.3 1s-1.1.6-1.7.8-1.3.3-2.1.3c-1.6 0-2.9-.2-3.9-.7s-1.8-1.2-2.3-2a9.47 9.47 0 0 1-1.1-3.1c-.2-1.2-.3-2.4-.3-3.8V15.2h6.3v10c0 .6 0 1.2.1 1.8s.2 1.2.4 1.7.5 1 1 1.3c.4.3 1.1.5 1.9.5s1.5-.1 2-.4.9-.7 1.2-1.2.4-1 .5-1.7c.1-.6.1-1.3.1-1.9V15.2h6.3v20.4zm3.5-31.7h6.3v31.7h-6.3V3.9zm23.6 16.4h-5.5V27c0 .6 0 1.1.1 1.5.1.5.2.9.4 1.2a2.36 2.36 0 0 0 .9.8c.4.2.9.3 1.6.3.3 0 .8 0 1.3-.1s1-.2 1.2-.5v5.2c-.7.3-1.4.4-2.2.5s-1.5.1-2.2.1a12.92 12.92 0 0 1-2.9-.3c-.9-.2-1.7-.6-2.3-1.1-.7-.5-1.2-1.1-1.6-1.9s-.6-1.7-.6-2.8v-9.7h-4v-5h4v-6h6.3v6h5.5v5.1z"/><use xlink:href="#B" x="67.2"/></g><defs ><path id="B" d="M137.9 21.2c-.9-1.1-2.1-1.7-3.6-1.7-.5 0-1 .1-1.6.4s-.8.7-.8 1.3c0 .5.3.9.8 1.1s1.2.4 2 .6l2.6.6c.9.2 1.8.5 2.6 1 .8.4 1.5 1.1 2 1.8.5.8.8 1.8.8 3.1s-.3 2.4-.9 3.2c-.6.9-1.3 1.5-2.2 2.1-.9.5-1.9.9-3 1.1s-2.2.3-3.3.3c-1.4 0-2.9-.2-4.3-.6-1.5-.4-2.7-1.1-3.7-2.2l3.8-4.2c.6.7 1.2 1.3 1.9 1.7s1.5.6 2.5.6c.7 0 1.4-.1 2-.3s.9-.6.9-1.2c0-.5-.3-.9-.8-1.2s-1.2-.5-2-.7l-2.6-.6c-.9-.2-1.8-.5-2.6-.9s-1.5-1-2-1.8-.8-1.8-.8-3.1c0-1.2.2-2.2.7-3.1s1.1-1.6 1.9-2.1c.8-.6 1.7-1 2.7-1.2 1-.3 2.1-.4 3.1-.4 1.3 0 2.7.2 4.1.6s2.5 1.1 3.5 2.1l-3.7 3.7z"/></defs></svg>